# xmcd
#
# Track frame offsets: 
#        150
#        13903
#        27687
#        49072
#        65967
#        81700
#        96282
#        108446
#        123278
#        134960
#        149841
#        163898
#        176655
#
# Disc length: 2469 seconds
#
# Revision: 1
# Processed by: cddbd v1.5.2PL0 Copyright (c) Steve Scherf et al.
# Submitted via: ExactAudioCopyFreeDBPlugin 1.0
#
DISCID=d809a30d
DTITLE=The Cash Box Kings - Royal Mint
DYEAR=2017
DGENRE=Blues
TTITLE0=House Party
TTITLE1=I'm Gonna Get My Baby
TTITLE2=Flood
TTITLE3=Build That Wall
TTITLE4=Blues for Chi-Rag
TTITLE5=Traveling Riverside Blues
TTITLE6=If You Got a Jealous Woman Facebook Ain't Your Friend
TTITLE7=Daddy Bear Blues
TTITLE8=Sugar Sweet
TTITLE9=I'm a Stranger
TTITLE10=I Come All The Way from Chi-Town
TTITLE11=All Night Long
TTITLE12=Don't Let Life Tether You Down
EXTD=
EXTT0=
EXTT1=
EXTT2=
EXTT3=
EXTT4=
EXTT5=
EXTT6=
EXTT7=
EXTT8=
EXTT9=
EXTT10=
EXTT11=
EXTT12=
PLAYORDER=
